<svg width="395" height="24" viewBox="0 0 395 24" fill="none" xmlns="http://www.w3.org/2000/svg">
<path d="M17 3.50017H7C4 3.50017 2 5.00017 2 8.50017V15.5002C2 19.0002 4 20.5002 7 20.5002H17C20 20.5002 22 19.0002 22 15.5002V8.50017C22 5.00017 20 3.50017 17 3.50017ZM17.47 9.59017L14.34 12.0902C13.68 12.6202 12.84 12.8802 12 12.8802C11.16 12.8802 10.31 12.6202 9.66 12.0902L6.53 9.59017C6.21 9.33017 6.16 8.85017 6.41 8.53017C6.67 8.21017 7.14 8.15017 7.46 8.41017L10.59 10.9102C11.35 11.5202 12.64 11.5202 13.4 10.9102L16.53 8.41017C16.85 8.15017 17.33 8.20017 17.58 8.53017C17.84 8.85017 17.79 9.33017 17.47 9.59017Z" fill="#D10400"/>
<path d="M32.9893 12.3182V17.5H31.2905V5.86364H32.9666V10.1932H33.0746C33.2791 9.72348 33.5916 9.35038 34.0121 9.07386C34.4325 8.79735 34.9818 8.65909 35.6598 8.65909C36.2583 8.65909 36.781 8.7822 37.228 9.02841C37.6787 9.27462 38.0272 9.64205 38.2734 10.1307C38.5234 10.6155 38.6484 11.2216 38.6484 11.9489V17.5H36.9496V12.1534C36.9496 11.5133 36.7848 11.017 36.4553 10.6648C36.1257 10.3087 35.6674 10.1307 35.0803 10.1307C34.6787 10.1307 34.3189 10.2159 34.0007 10.3864C33.6863 10.5568 33.4382 10.8068 33.2564 11.1364C33.0784 11.4621 32.9893 11.8561 32.9893 12.3182ZM41.0518 17.5V5.86364H42.7507V10.1875H42.853C42.9515 10.0057 43.0935 9.79545 43.2791 9.55682C43.4647 9.31818 43.7223 9.10985 44.0518 8.93182C44.3814 8.75 44.817 8.65909 45.3587 8.65909C46.0632 8.65909 46.692 8.83712 47.245 9.19318C47.7981 9.54924 48.2318 10.0625 48.5462 10.733C48.8643 11.4034 49.0234 12.2102 49.0234 13.1534C49.0234 14.0966 48.8662 14.9053 48.5518 15.5795C48.2375 16.25 47.8056 16.767 47.2564 17.1307C46.7071 17.4905 46.0803 17.6705 45.3757 17.6705C44.8454 17.6705 44.4117 17.5814 44.0746 17.4034C43.7412 17.2254 43.4799 17.017 43.2905 16.7784C43.1011 16.5398 42.9553 16.3277 42.853 16.142H42.7109V17.5H41.0518ZM42.7166 13.1364C42.7166 13.75 42.8056 14.2879 42.9837 14.75C43.1617 15.2121 43.4193 15.5739 43.7564 15.8352C44.0935 16.0928 44.5064 16.2216 44.995 16.2216C45.5026 16.2216 45.9268 16.0871 46.2678 15.8182C46.6087 15.5455 46.8662 15.1761 47.0405 14.7102C47.2185 14.2443 47.3075 13.7197 47.3075 13.1364C47.3075 12.5606 47.2204 12.0436 47.0462 11.5852C46.8757 11.1269 46.6181 10.7652 46.2734 10.5C45.9325 10.2348 45.5064 10.1023 44.995 10.1023C44.5026 10.1023 44.0859 10.2292 43.745 10.483C43.4079 10.7367 43.1522 11.0909 42.978 11.5455C42.8037 12 42.7166 12.5303 42.7166 13.1364ZM53.4709 17.6932C52.9179 17.6932 52.4179 17.5909 51.9709 17.3864C51.5239 17.178 51.1697 16.8769 50.9084 16.483C50.6508 16.089 50.522 15.6061 50.522 15.0341C50.522 14.5417 50.6167 14.1364 50.8061 13.8182C50.9955 13.5 51.2512 13.2481 51.5732 13.0625C51.8951 12.8769 52.255 12.7367 52.6527 12.642C53.0504 12.5473 53.4557 12.4754 53.8686 12.4261C54.3913 12.3655 54.8156 12.3163 55.1413 12.2784C55.4671 12.2367 55.7038 12.1705 55.8516 12.0795C55.9993 11.9886 56.0732 11.8409 56.0732 11.6364V11.5966C56.0732 11.1004 55.933 10.7159 55.6527 10.4432C55.3762 10.1705 54.9633 10.0341 54.4141 10.0341C53.8421 10.0341 53.3913 10.161 53.0618 10.4148C52.736 10.6648 52.5107 10.9432 52.3857 11.25L50.7891 10.8864C50.9785 10.3561 51.255 9.92803 51.6186 9.60227C51.986 9.27273 52.4084 9.03409 52.8857 8.88636C53.3629 8.73485 53.8648 8.65909 54.3913 8.65909C54.7398 8.65909 55.1091 8.70076 55.4993 8.78409C55.8932 8.86364 56.2607 9.01136 56.6016 9.22727C56.9463 9.44318 57.2285 9.75189 57.4482 10.1534C57.6679 10.5511 57.7777 11.0682 57.7777 11.7045V17.5H56.1186V16.3068H56.0504C55.9406 16.5265 55.7758 16.7424 55.5561 16.9545C55.3364 17.1667 55.0542 17.3428 54.7095 17.483C54.3648 17.6231 53.9519 17.6932 53.4709 17.6932ZM53.8402 16.3295C54.3099 16.3295 54.7114 16.2367 55.0447 16.0511C55.3819 15.8655 55.6375 15.6231 55.8118 15.3239C55.9898 15.0208 56.0788 14.697 56.0788 14.3523V13.2273C56.0182 13.2879 55.9008 13.3447 55.7266 13.3977C55.5561 13.447 55.361 13.4905 55.1413 13.5284C54.9216 13.5625 54.7076 13.5947 54.4993 13.625C54.291 13.6515 54.1167 13.6742 53.9766 13.6932C53.647 13.7348 53.3459 13.8049 53.0732 13.9034C52.8042 14.0019 52.5883 14.1439 52.4254 14.3295C52.2663 14.5114 52.1868 14.7538 52.1868 15.0568C52.1868 15.4773 52.3421 15.7955 52.6527 16.0114C52.9633 16.2235 53.3591 16.3295 53.8402 16.3295ZM61.7393 12.3182V17.5H60.0405V8.77273H61.6712V10.1932H61.7791C61.9799 9.73106 62.2943 9.35985 62.7223 9.07955C63.1541 8.79924 63.6977 8.65909 64.353 8.65909C64.9477 8.65909 65.4685 8.78409 65.9155 9.03409C66.3625 9.2803 66.709 9.64773 66.9553 10.1364C67.2015 10.625 67.3246 11.2292 67.3246 11.9489V17.5H65.6257V12.1534C65.6257 11.5208 65.4609 11.0265 65.1314 10.6705C64.8018 10.3106 64.3492 10.1307 63.7734 10.1307C63.3795 10.1307 63.0291 10.2159 62.7223 10.3864C62.4193 10.5568 62.1787 10.8068 62.0007 11.1364C61.8265 11.4621 61.7393 11.8561 61.7393 12.3182ZM72.87 17.6705C72.1655 17.6705 71.5367 17.4905 70.9837 17.1307C70.4344 16.767 70.0026 16.25 69.6882 15.5795C69.3776 14.9053 69.2223 14.0966 69.2223 13.1534C69.2223 12.2102 69.3795 11.4034 69.6939 10.733C70.0121 10.0625 70.4477 9.54924 71.0007 9.19318C71.5537 8.83712 72.1806 8.65909 72.8814 8.65909C73.4231 8.65909 73.8587 8.75 74.1882 8.93182C74.5215 9.10985 74.7791 9.31818 74.9609 9.55682C75.1465 9.79545 75.2905 10.0057 75.3928 10.1875H75.495V5.86364H77.1939V17.5H75.5348V16.142H75.3928C75.2905 16.3277 75.1428 16.5398 74.9496 16.7784C74.7602 17.017 74.4988 17.2254 74.1655 17.4034C73.8321 17.5814 73.4003 17.6705 72.87 17.6705ZM73.245 16.2216C73.7337 16.2216 74.1465 16.0928 74.4837 15.8352C74.8246 15.5739 75.0821 15.2121 75.2564 14.75C75.4344 14.2879 75.5234 13.75 75.5234 13.1364C75.5234 12.5303 75.4363 12 75.2621 11.5455C75.0878 11.0909 74.8321 10.7367 74.495 10.483C74.1579 10.2292 73.7412 10.1023 73.245 10.1023C72.7337 10.1023 72.3075 10.2348 71.9666 10.5C71.6257 10.7652 71.3681 11.1269 71.1939 11.5852C71.0234 12.0436 70.9382 12.5606 70.9382 13.1364C70.9382 13.7197 71.0253 14.2443 71.1996 14.7102C71.3738 15.1761 71.6314 15.5455 71.9723 15.8182C72.317 16.0871 72.7412 16.2216 73.245 16.2216ZM86.1584 10.9034L84.6186 11.1761C84.5542 10.9792 84.4519 10.7917 84.3118 10.6136C84.1754 10.4356 83.9898 10.2898 83.755 10.1761C83.5201 10.0625 83.2266 10.0057 82.8743 10.0057C82.3932 10.0057 81.9917 10.1136 81.6697 10.3295C81.3478 10.5417 81.1868 10.8163 81.1868 11.1534C81.1868 11.4451 81.2947 11.6799 81.5107 11.858C81.7266 12.036 82.075 12.1818 82.5561 12.2955L83.9425 12.6136C84.7455 12.7992 85.344 13.0852 85.7379 13.4716C86.1319 13.858 86.3288 14.3598 86.3288 14.9773C86.3288 15.5 86.1773 15.9659 85.8743 16.375C85.575 16.7803 85.1565 17.0985 84.6186 17.3295C84.0845 17.5606 83.4652 17.6761 82.7607 17.6761C81.7834 17.6761 80.986 17.4678 80.3686 17.0511C79.7512 16.6307 79.3724 16.0341 79.2322 15.2614L80.8743 15.0114C80.9766 15.4394 81.1868 15.7633 81.505 15.983C81.8232 16.1989 82.2379 16.3068 82.7493 16.3068C83.3061 16.3068 83.7512 16.1913 84.0845 15.9602C84.4179 15.7254 84.5845 15.4394 84.5845 15.1023C84.5845 14.8295 84.4822 14.6004 84.2777 14.4148C84.0769 14.2292 83.7682 14.089 83.3516 13.9943L81.8743 13.6705C81.0599 13.4848 80.4576 13.1894 80.0675 12.7841C79.6811 12.3788 79.4879 11.8655 79.4879 11.2443C79.4879 10.7292 79.6319 10.2784 79.9197 9.89205C80.2076 9.50568 80.6054 9.20455 81.1129 8.98864C81.6205 8.76894 82.2019 8.65909 82.8572 8.65909C83.8004 8.65909 84.5429 8.86364 85.0845 9.27273C85.6262 9.67803 85.9841 10.2216 86.1584 10.9034ZM91.8729 17.6761C91.0547 17.6761 90.3407 17.4886 89.7308 17.1136C89.121 16.7386 88.6475 16.214 88.3104 15.5398C87.9732 14.8655 87.8047 14.0777 87.8047 13.1761C87.8047 12.2708 87.9732 11.4792 88.3104 10.8011C88.6475 10.1231 89.121 9.59659 89.7308 9.22159C90.3407 8.84659 91.0547 8.65909 91.8729 8.65909C92.6911 8.65909 93.4051 8.84659 94.0149 9.22159C94.6248 9.59659 95.0982 10.1231 95.4354 10.8011C95.7725 11.4792 95.9411 12.2708 95.9411 13.1761C95.9411 14.0777 95.7725 14.8655 95.4354 15.5398C95.0982 16.214 94.6248 16.7386 94.0149 17.1136C93.4051 17.4886 92.6911 17.6761 91.8729 17.6761ZM91.8786 16.25C92.4089 16.25 92.8482 16.1098 93.1967 15.8295C93.5452 15.5492 93.8028 15.1761 93.9695 14.7102C94.1399 14.2443 94.2251 13.7311 94.2251 13.1705C94.2251 12.6136 94.1399 12.1023 93.9695 11.6364C93.8028 11.1667 93.5452 10.7898 93.1967 10.5057C92.8482 10.2216 92.4089 10.0795 91.8786 10.0795C91.3445 10.0795 90.9013 10.2216 90.549 10.5057C90.2005 10.7898 89.9411 11.1667 89.7706 11.6364C89.6039 12.1023 89.5206 12.6136 89.5206 13.1705C89.5206 13.7311 89.6039 14.2443 89.7706 14.7102C89.9411 15.1761 90.2005 15.5492 90.549 15.8295C90.9013 16.1098 91.3445 16.25 91.8786 16.25ZM99.5362 12.3182V17.5H97.8374V8.77273H99.468V10.1932H99.576C99.7768 9.73106 100.091 9.35985 100.519 9.07955C100.951 8.79924 101.495 8.65909 102.15 8.65909C102.745 8.65909 103.265 8.78409 103.712 9.03409C104.159 9.2803 104.506 9.64773 104.752 10.1364C104.998 10.625 105.121 11.2292 105.121 11.9489V17.5H103.423V12.1534C103.423 11.5208 103.258 11.0265 102.928 10.6705C102.599 10.3106 102.146 10.1307 101.57 10.1307C101.176 10.1307 100.826 10.2159 100.519 10.3864C100.216 10.5568 99.9756 10.8068 99.7976 11.1364C99.6233 11.4621 99.5362 11.8561 99.5362 12.3182ZM113.94 10.9034L112.4 11.1761C112.335 10.9792 112.233 10.7917 112.093 10.6136C111.957 10.4356 111.771 10.2898 111.536 10.1761C111.301 10.0625 111.008 10.0057 110.656 10.0057C110.174 10.0057 109.773 10.1136 109.451 10.3295C109.129 10.5417 108.968 10.8163 108.968 11.1534C108.968 11.4451 109.076 11.6799 109.292 11.858C109.508 12.036 109.856 12.1818 110.337 12.2955L111.724 12.6136C112.527 12.7992 113.125 13.0852 113.519 13.4716C113.913 13.858 114.11 14.3598 114.11 14.9773C114.11 15.5 113.959 15.9659 113.656 16.375C113.356 16.7803 112.938 17.0985 112.4 17.3295C111.866 17.5606 111.246 17.6761 110.542 17.6761C109.565 17.6761 108.767 17.4678 108.15 17.0511C107.532 16.6307 107.154 16.0341 107.013 15.2614L108.656 15.0114C108.758 15.4394 108.968 15.7633 109.286 15.983C109.604 16.1989 110.019 16.3068 110.531 16.3068C111.087 16.3068 111.532 16.1913 111.866 15.9602C112.199 15.7254 112.366 15.4394 112.366 15.1023C112.366 14.8295 112.263 14.6004 112.059 14.4148C111.858 14.2292 111.549 14.089 111.133 13.9943L109.656 13.6705C108.841 13.4848 108.239 13.1894 107.849 12.7841C107.462 12.3788 107.269 11.8655 107.269 11.2443C107.269 10.7292 107.413 10.2784 107.701 9.89205C107.989 9.50568 108.387 9.20455 108.894 8.98864C109.402 8.76894 109.983 8.65909 110.638 8.65909C111.582 8.65909 112.324 8.86364 112.866 9.27273C113.407 9.67803 113.765 10.2216 113.94 10.9034ZM117.677 5.86364V17.5H115.978V5.86364H117.677ZM121.661 5.86364V17.5H119.962V5.86364H121.661ZM127.623 17.6761C126.778 17.6761 126.051 17.4848 125.441 17.1023C124.835 16.7159 124.369 16.1837 124.043 15.5057C123.718 14.8277 123.555 14.0511 123.555 13.1761C123.555 12.2898 123.721 11.5076 124.055 10.8295C124.388 10.1477 124.858 9.61553 125.464 9.23295C126.07 8.85038 126.784 8.65909 127.606 8.65909C128.269 8.65909 128.86 8.7822 129.379 9.02841C129.897 9.27083 130.316 9.61174 130.634 10.0511C130.956 10.4905 131.147 11.0038 131.208 11.5909H129.555C129.464 11.1818 129.255 10.8295 128.93 10.5341C128.608 10.2386 128.176 10.0909 127.634 10.0909C127.161 10.0909 126.746 10.2159 126.39 10.4659C126.038 10.7121 125.763 11.0644 125.566 11.5227C125.369 11.9773 125.271 12.5152 125.271 13.1364C125.271 13.7727 125.367 14.322 125.56 14.7841C125.754 15.2462 126.026 15.6042 126.379 15.858C126.735 16.1117 127.153 16.2386 127.634 16.2386C127.956 16.2386 128.248 16.1799 128.509 16.0625C128.774 15.9413 128.996 15.7689 129.174 15.5455C129.356 15.322 129.483 15.053 129.555 14.7386H131.208C131.147 15.303 130.964 15.8068 130.657 16.25C130.35 16.6932 129.939 17.0417 129.424 17.2955C128.913 17.5492 128.312 17.6761 127.623 17.6761ZM140.031 20.6648C138.856 20.6648 137.815 20.5038 136.906 20.1818C136 19.8636 135.237 19.3939 134.616 18.7727C133.995 18.1553 133.523 17.3977 133.201 16.5C132.879 15.6023 132.718 14.5777 132.718 13.4261C132.718 12.3049 132.881 11.2973 133.207 10.4034C133.532 9.50947 134.006 8.74811 134.627 8.11932C135.252 7.48674 136.012 7.00379 136.906 6.67045C137.799 6.33712 138.815 6.17045 139.951 6.17045C141.038 6.17045 141.996 6.34091 142.826 6.68182C143.656 7.02273 144.353 7.49053 144.917 8.08523C145.485 8.67992 145.913 9.36174 146.201 10.1307C146.489 10.8996 146.633 11.7121 146.633 12.5682C146.633 13.1667 146.595 13.7519 146.519 14.3239C146.443 14.892 146.303 15.4072 146.099 15.8693C145.898 16.3277 145.606 16.6951 145.224 16.9716C144.845 17.2443 144.353 17.3864 143.746 17.3977C143.424 17.4091 143.112 17.3712 142.809 17.2841C142.506 17.197 142.248 17.0568 142.036 16.8636C141.824 16.6667 141.695 16.4167 141.65 16.1136H141.582C141.491 16.3371 141.339 16.5455 141.127 16.7386C140.915 16.928 140.644 17.0795 140.315 17.1932C139.989 17.303 139.61 17.3485 139.178 17.3295C138.701 17.3106 138.271 17.2027 137.888 17.0057C137.506 16.8087 137.178 16.536 136.906 16.1875C136.637 15.839 136.43 15.4261 136.286 14.9489C136.142 14.4716 136.07 13.9413 136.07 13.358C136.07 12.7973 136.152 12.2955 136.315 11.8523C136.478 11.4053 136.699 11.0208 136.979 10.6989C137.263 10.3731 137.589 10.1155 137.957 9.92614C138.324 9.73674 138.712 9.61742 139.121 9.56818C139.519 9.52273 139.885 9.53409 140.218 9.60227C140.551 9.67045 140.828 9.77462 141.048 9.91477C141.271 10.0549 141.411 10.2083 141.468 10.375H141.542V9.73864H142.94V15.0114C142.94 15.3106 143.017 15.5644 143.173 15.7727C143.332 15.9811 143.557 16.0852 143.849 16.0852C144.193 16.0852 144.462 15.9583 144.656 15.7045C144.853 15.4508 144.991 15.0606 145.07 14.5341C145.154 14.0076 145.195 13.3333 145.195 12.5114C145.195 11.9356 145.118 11.3939 144.962 10.8864C144.811 10.375 144.585 9.91288 144.286 9.5C143.991 9.08333 143.627 8.72538 143.195 8.42614C142.763 8.12689 142.271 7.89583 141.718 7.73295C141.169 7.57008 140.561 7.48864 139.894 7.48864C138.989 7.48864 138.184 7.62879 137.479 7.90909C136.775 8.18561 136.18 8.58523 135.695 9.10795C135.214 9.63068 134.849 10.2576 134.599 10.9886C134.353 11.7159 134.229 12.5322 134.229 13.4375C134.229 14.3807 134.356 15.2178 134.61 15.9489C134.864 16.6761 135.239 17.2898 135.735 17.7898C136.231 18.2898 136.845 18.6686 137.576 18.9261C138.307 19.1875 139.15 19.3182 140.104 19.3182C140.529 19.3182 140.945 19.2803 141.354 19.2045C141.763 19.1326 142.127 19.0492 142.445 18.9545C142.767 18.8636 143.008 18.7898 143.167 18.733L143.565 19.9773C143.33 20.0871 143.017 20.1951 142.627 20.3011C142.241 20.4072 141.82 20.4943 141.366 20.5625C140.915 20.6307 140.47 20.6648 140.031 20.6648ZM139.508 15.9375C140 15.9375 140.396 15.839 140.695 15.642C140.998 15.4451 141.216 15.1515 141.349 14.7614C141.485 14.3674 141.553 13.875 141.553 13.2841C141.549 12.7083 141.476 12.25 141.332 11.9091C141.192 11.5644 140.972 11.3182 140.673 11.1705C140.377 11.0189 139.996 10.9432 139.531 10.9432C139.103 10.9432 138.737 11.0473 138.434 11.2557C138.135 11.464 137.906 11.7462 137.746 12.1023C137.591 12.4583 137.512 12.8542 137.508 13.2898C137.512 13.7481 137.576 14.1799 137.701 14.5852C137.83 14.9867 138.038 15.3125 138.326 15.5625C138.618 15.8125 139.012 15.9375 139.508 15.9375ZM152.168 20.9545C151.475 20.9545 150.879 20.8636 150.379 20.6818C149.882 20.5 149.477 20.2595 149.163 19.9602C148.848 19.661 148.613 19.3333 148.458 18.9773L149.918 18.375C150.021 18.5417 150.157 18.7178 150.327 18.9034C150.502 19.0928 150.737 19.2538 151.032 19.3864C151.331 19.5189 151.716 19.5852 152.185 19.5852C152.829 19.5852 153.362 19.428 153.782 19.1136C154.202 18.803 154.413 18.3068 154.413 17.625V15.9091H154.305C154.202 16.0947 154.055 16.3011 153.862 16.5284C153.672 16.7557 153.411 16.9527 153.077 17.1193C152.744 17.286 152.31 17.3693 151.776 17.3693C151.087 17.3693 150.466 17.2083 149.913 16.8864C149.363 16.5606 148.928 16.0814 148.606 15.4489C148.288 14.8125 148.129 14.0303 148.129 13.1023C148.129 12.1742 148.286 11.3788 148.6 10.7159C148.918 10.053 149.354 9.54545 149.907 9.19318C150.46 8.83712 151.087 8.65909 151.788 8.65909C152.329 8.65909 152.767 8.75 153.1 8.93182C153.433 9.10985 153.693 9.31818 153.879 9.55682C154.068 9.79545 154.214 10.0057 154.316 10.1875H154.441V8.77273H156.106V17.6932C156.106 18.4432 155.932 19.0587 155.583 19.5398C155.235 20.0208 154.763 20.3769 154.168 20.608C153.577 20.839 152.911 20.9545 152.168 20.9545ZM152.151 15.9602C152.64 15.9602 153.053 15.8466 153.39 15.6193C153.731 15.3883 153.988 15.0587 154.163 14.6307C154.341 14.1989 154.43 13.6818 154.43 13.0795C154.43 12.4924 154.343 11.9754 154.168 11.5284C153.994 11.0814 153.738 10.733 153.401 10.483C153.064 10.2292 152.647 10.1023 152.151 10.1023C151.64 10.1023 151.214 10.2348 150.873 10.5C150.532 10.7614 150.274 11.1174 150.1 11.5682C149.93 12.0189 149.844 12.5227 149.844 13.0795C149.844 13.6515 149.932 14.1534 150.106 14.5852C150.28 15.017 150.538 15.3542 150.879 15.5966C151.223 15.839 151.647 15.9602 152.151 15.9602ZM158.384 17.5V8.77273H160.015V10.1932H160.123C160.305 9.71212 160.602 9.33712 161.015 9.06818C161.428 8.79545 161.922 8.65909 162.498 8.65909C163.081 8.65909 163.57 8.79545 163.964 9.06818C164.362 9.34091 164.655 9.71591 164.844 10.1932H164.935C165.144 9.72727 165.475 9.35606 165.93 9.07955C166.384 8.79924 166.926 8.65909 167.555 8.65909C168.346 8.65909 168.992 8.9072 169.492 9.40341C169.996 9.89962 170.248 10.6477 170.248 11.6477V17.5H168.549V11.8068C168.549 11.2159 168.388 10.7879 168.066 10.5227C167.744 10.2576 167.36 10.125 166.913 10.125C166.36 10.125 165.93 10.2955 165.623 10.6364C165.316 10.9735 165.163 11.4072 165.163 11.9375V17.5H163.469V11.6989C163.469 11.2254 163.322 10.8447 163.026 10.5568C162.731 10.2689 162.346 10.125 161.873 10.125C161.551 10.125 161.254 10.2102 160.981 10.3807C160.712 10.5473 160.494 10.7803 160.327 11.0795C160.165 11.3788 160.083 11.7254 160.083 12.1193V17.5H158.384ZM175.065 17.6932C174.512 17.6932 174.012 17.5909 173.565 17.3864C173.118 17.178 172.763 16.8769 172.502 16.483C172.245 16.089 172.116 15.6061 172.116 15.0341C172.116 14.5417 172.21 14.1364 172.4 13.8182C172.589 13.5 172.845 13.2481 173.167 13.0625C173.489 12.8769 173.849 12.7367 174.246 12.642C174.644 12.5473 175.049 12.4754 175.462 12.4261C175.985 12.3655 176.409 12.3163 176.735 12.2784C177.061 12.2367 177.298 12.1705 177.445 12.0795C177.593 11.9886 177.667 11.8409 177.667 11.6364V11.5966C177.667 11.1004 177.527 10.7159 177.246 10.4432C176.97 10.1705 176.557 10.0341 176.008 10.0341C175.436 10.0341 174.985 10.161 174.656 10.4148C174.33 10.6648 174.104 10.9432 173.979 11.25L172.383 10.8864C172.572 10.3561 172.849 9.92803 173.212 9.60227C173.58 9.27273 174.002 9.03409 174.479 8.88636C174.957 8.73485 175.459 8.65909 175.985 8.65909C176.334 8.65909 176.703 8.70076 177.093 8.78409C177.487 8.86364 177.854 9.01136 178.195 9.22727C178.54 9.44318 178.822 9.75189 179.042 10.1534C179.262 10.5511 179.371 11.0682 179.371 11.7045V17.5H177.712V16.3068H177.644C177.534 16.5265 177.37 16.7424 177.15 16.9545C176.93 17.1667 176.648 17.3428 176.303 17.483C175.959 17.6231 175.546 17.6932 175.065 17.6932ZM175.434 16.3295C175.904 16.3295 176.305 16.2367 176.638 16.0511C176.976 15.8655 177.231 15.6231 177.406 15.3239C177.584 15.0208 177.673 14.697 177.673 14.3523V13.2273C177.612 13.2879 177.495 13.3447 177.32 13.3977C177.15 13.447 176.955 13.4905 176.735 13.5284C176.515 13.5625 176.301 13.5947 176.093 13.625C175.885 13.6515 175.71 13.6742 175.57 13.6932C175.241 13.7348 174.94 13.8049 174.667 13.9034C174.398 14.0019 174.182 14.1439 174.019 14.3295C173.86 14.5114 173.781 14.7538 173.781 15.0568C173.781 15.4773 173.936 15.7955 174.246 16.0114C174.557 16.2235 174.953 16.3295 175.434 16.3295ZM181.634 17.5V8.77273H183.333V17.5H181.634ZM182.492 7.42614C182.197 7.42614 181.943 7.32765 181.731 7.13068C181.522 6.92992 181.418 6.69129 181.418 6.41477C181.418 6.13447 181.522 5.89583 181.731 5.69886C181.943 5.49811 182.197 5.39773 182.492 5.39773C182.788 5.39773 183.04 5.49811 183.248 5.69886C183.46 5.89583 183.566 6.13447 183.566 6.41477C183.566 6.69129 183.46 6.92992 183.248 7.13068C183.04 7.32765 182.788 7.42614 182.492 7.42614ZM187.317 5.86364V17.5H185.619V5.86364H187.317ZM190.722 17.608C190.412 17.608 190.145 17.4981 189.921 17.2784C189.698 17.0549 189.586 16.786 189.586 16.4716C189.586 16.161 189.698 15.8958 189.921 15.6761C190.145 15.4527 190.412 15.3409 190.722 15.3409C191.033 15.3409 191.3 15.4527 191.523 15.6761C191.747 15.8958 191.859 16.161 191.859 16.4716C191.859 16.6799 191.806 16.8712 191.7 17.0455C191.597 17.2159 191.461 17.3523 191.29 17.4545C191.12 17.5568 190.931 17.608 190.722 17.608ZM197.81 17.6761C196.966 17.6761 196.238 17.4848 195.629 17.1023C195.022 16.7159 194.557 16.1837 194.231 15.5057C193.905 14.8277 193.742 14.0511 193.742 13.1761C193.742 12.2898 193.909 11.5076 194.242 10.8295C194.576 10.1477 195.045 9.61553 195.651 9.23295C196.257 8.85038 196.971 8.65909 197.793 8.65909C198.456 8.65909 199.047 8.7822 199.566 9.02841C200.085 9.27083 200.504 9.61174 200.822 10.0511C201.144 10.4905 201.335 11.0038 201.396 11.5909H199.742C199.651 11.1818 199.443 10.8295 199.117 10.5341C198.795 10.2386 198.363 10.0909 197.822 10.0909C197.348 10.0909 196.933 10.2159 196.577 10.4659C196.225 10.7121 195.951 11.0644 195.754 11.5227C195.557 11.9773 195.458 12.5152 195.458 13.1364C195.458 13.7727 195.555 14.322 195.748 14.7841C195.941 15.2462 196.214 15.6042 196.566 15.858C196.922 16.1117 197.341 16.2386 197.822 16.2386C198.144 16.2386 198.435 16.1799 198.697 16.0625C198.962 15.9413 199.183 15.7689 199.362 15.5455C199.543 15.322 199.67 15.053 199.742 14.7386H201.396C201.335 15.303 201.151 15.8068 200.844 16.25C200.538 16.6932 200.127 17.0417 199.612 17.2955C199.1 17.5492 198.5 17.6761 197.81 17.6761ZM206.888 17.6761C206.07 17.6761 205.356 17.4886 204.746 17.1136C204.137 16.7386 203.663 16.214 203.326 15.5398C202.989 14.8655 202.82 14.0777 202.82 13.1761C202.82 12.2708 202.989 11.4792 203.326 10.8011C203.663 10.1231 204.137 9.59659 204.746 9.22159C205.356 8.84659 206.07 8.65909 206.888 8.65909C207.707 8.65909 208.421 8.84659 209.031 9.22159C209.64 9.59659 210.114 10.1231 210.451 10.8011C210.788 11.4792 210.957 12.2708 210.957 13.1761C210.957 14.0777 210.788 14.8655 210.451 15.5398C210.114 16.214 209.64 16.7386 209.031 17.1136C208.421 17.4886 207.707 17.6761 206.888 17.6761ZM206.894 16.25C207.424 16.25 207.864 16.1098 208.212 15.8295C208.561 15.5492 208.818 15.1761 208.985 14.7102C209.156 14.2443 209.241 13.7311 209.241 13.1705C209.241 12.6136 209.156 12.1023 208.985 11.6364C208.818 11.1667 208.561 10.7898 208.212 10.5057C207.864 10.2216 207.424 10.0795 206.894 10.0795C206.36 10.0795 205.917 10.2216 205.565 10.5057C205.216 10.7898 204.957 11.1667 204.786 11.6364C204.62 12.1023 204.536 12.6136 204.536 13.1705C204.536 13.7311 204.62 14.2443 204.786 14.7102C204.957 15.1761 205.216 15.5492 205.565 15.8295C205.917 16.1098 206.36 16.25 206.894 16.25ZM212.853 17.5V8.77273H214.484V10.1932H214.592C214.773 9.71212 215.071 9.33712 215.484 9.06818C215.897 8.79545 216.391 8.65909 216.967 8.65909C217.55 8.65909 218.039 8.79545 218.433 9.06818C218.83 9.34091 219.124 9.71591 219.313 10.1932H219.404C219.612 9.72727 219.944 9.35606 220.398 9.07955C220.853 8.79924 221.395 8.65909 222.023 8.65909C222.815 8.65909 223.461 8.9072 223.961 9.40341C224.465 9.89962 224.717 10.6477 224.717 11.6477V17.5H223.018V11.8068C223.018 11.2159 222.857 10.7879 222.535 10.5227C222.213 10.2576 221.828 10.125 221.381 10.125C220.828 10.125 220.398 10.2955 220.092 10.6364C219.785 10.9735 219.631 11.4072 219.631 11.9375V17.5H217.938V11.6989C217.938 11.2254 217.79 10.8447 217.495 10.5568C217.2 10.2689 216.815 10.125 216.342 10.125C216.02 10.125 215.722 10.2102 215.45 10.3807C215.181 10.5473 214.963 10.7803 214.796 11.0795C214.633 11.3788 214.552 11.7254 214.552 12.1193V17.5H212.853Z" fill="#D10400"/>
<path d="M271.97 18.33C271.97 18.69 271.89 19.06 271.72 19.42C271.55 19.78 271.33 20.12 271.04 20.44C270.55 20.98 270.01 21.37 269.4 21.62C268.8 21.87 268.15 22 267.45 22C266.43 22 265.34 21.76 264.19 21.27C263.04 20.78 261.89 20.12 260.75 19.29C259.6 18.45 258.51 17.52 257.47 16.49C256.44 15.45 255.51 14.36 254.68 13.22C253.86 12.08 253.2 10.94 252.72 9.81003C252.24 8.67003 252 7.58003 252 6.54003C252 5.86003 252.12 5.21003 252.36 4.61003C252.6 4.00003 252.98 3.44003 253.51 2.94003C254.15 2.31003 254.85 2.00003 255.59 2.00003C255.87 2.00003 256.15 2.06003 256.4 2.18003C256.66 2.30003 256.89 2.48003 257.07 2.74003L259.39 6.01003C259.57 6.26003 259.7 6.49003 259.79 6.71003C259.88 6.92003 259.93 7.13003 259.93 7.32003C259.93 7.56003 259.86 7.80003 259.72 8.03003C259.59 8.26003 259.4 8.50003 259.16 8.74003L258.4 9.53003C258.29 9.64003 258.24 9.77003 258.24 9.93003C258.24 10.01 258.25 10.08 258.27 10.16C258.3 10.24 258.33 10.3 258.35 10.36C258.53 10.69 258.84 11.12 259.28 11.64C259.73 12.16 260.21 12.69 260.73 13.22C261.27 13.75 261.79 14.24 262.32 14.69C262.84 15.13 263.27 15.43 263.61 15.61C263.66 15.63 263.72 15.66 263.79 15.69C263.87 15.72 263.95 15.73 264.04 15.73C264.21 15.73 264.34 15.67 264.45 15.56L265.21 14.81C265.46 14.56 265.7 14.37 265.93 14.25C266.16 14.11 266.39 14.04 266.64 14.04C266.83 14.04 267.03 14.08 267.25 14.17C267.47 14.26 267.7 14.39 267.95 14.56L271.26 16.91C271.52 17.09 271.7 17.3 271.81 17.55C271.91 17.8 271.97 18.05 271.97 18.33Z" fill="#D10400"/>
<path d="M285.182 17.6591C284.663 17.6515 284.152 17.5568 283.648 17.375C283.148 17.1932 282.693 16.8902 282.284 16.4659C281.875 16.0417 281.547 15.4716 281.301 14.7557C281.059 14.0398 280.938 13.1458 280.938 12.0739C280.938 11.0587 281.038 10.1572 281.239 9.36932C281.443 8.58144 281.737 7.91667 282.119 7.375C282.502 6.82955 282.964 6.41477 283.506 6.13068C284.047 5.84659 284.655 5.70455 285.33 5.70455C286.023 5.70455 286.638 5.84091 287.176 6.11364C287.714 6.38636 288.15 6.76326 288.483 7.24432C288.82 7.72538 289.034 8.27273 289.125 8.88636H287.392C287.275 8.40152 287.042 8.00568 286.693 7.69886C286.345 7.39205 285.89 7.23864 285.33 7.23864C284.477 7.23864 283.813 7.60985 283.335 8.35227C282.862 9.0947 282.623 10.1269 282.619 11.4489H282.705C282.905 11.1193 283.152 10.839 283.443 10.608C283.739 10.3731 284.068 10.1932 284.432 10.0682C284.799 9.93939 285.186 9.875 285.591 9.875C286.265 9.875 286.875 10.0398 287.42 10.3693C287.97 10.6951 288.407 11.1458 288.733 11.7216C289.059 12.2973 289.222 12.9564 289.222 13.6989C289.222 14.4413 289.053 15.1136 288.716 15.7159C288.383 16.3182 287.913 16.7955 287.307 17.1477C286.701 17.4962 285.992 17.6667 285.182 17.6591ZM285.176 16.1818C285.623 16.1818 286.023 16.072 286.375 15.8523C286.727 15.6326 287.006 15.3371 287.21 14.9659C287.415 14.5947 287.517 14.1799 287.517 13.7216C287.517 13.2746 287.417 12.8674 287.216 12.5C287.019 12.1326 286.746 11.8409 286.398 11.625C286.053 11.4091 285.659 11.3011 285.216 11.3011C284.879 11.3011 284.566 11.3655 284.278 11.4943C283.994 11.6231 283.744 11.8011 283.528 12.0284C283.313 12.2557 283.142 12.517 283.017 12.8125C282.896 13.1042 282.835 13.4129 282.835 13.7386C282.835 14.1742 282.936 14.5777 283.136 14.9489C283.341 15.3201 283.619 15.6193 283.972 15.8466C284.328 16.0701 284.729 16.1818 285.176 16.1818ZM295.342 17.6932C294.445 17.6894 293.678 17.4527 293.041 16.983C292.405 16.5133 291.918 15.8295 291.581 14.9318C291.244 14.0341 291.075 12.9527 291.075 11.6875C291.075 10.4261 291.244 9.34848 291.581 8.45455C291.922 7.56061 292.411 6.87879 293.047 6.40909C293.687 5.93939 294.452 5.70455 295.342 5.70455C296.232 5.70455 296.996 5.94129 297.632 6.41477C298.268 6.88447 298.755 7.56629 299.092 8.46023C299.433 9.35038 299.604 10.4261 299.604 11.6875C299.604 12.9564 299.435 14.0398 299.098 14.9375C298.761 15.8314 298.274 16.5152 297.638 16.9886C297.001 17.4583 296.236 17.6932 295.342 17.6932ZM295.342 16.1761C296.13 16.1761 296.746 15.7917 297.189 15.0227C297.636 14.2538 297.859 13.142 297.859 11.6875C297.859 10.7216 297.757 9.9053 297.553 9.23864C297.352 8.56818 297.062 8.06061 296.683 7.71591C296.308 7.36742 295.861 7.19318 295.342 7.19318C294.558 7.19318 293.943 7.57954 293.496 8.35227C293.049 9.125 292.823 10.2367 292.82 11.6875C292.82 12.6572 292.92 13.4773 293.121 14.1477C293.325 14.8144 293.615 15.3201 293.99 15.6648C294.365 16.0057 294.816 16.1761 295.342 16.1761ZM305.46 17.6591C304.748 17.6591 304.108 17.5227 303.54 17.25C302.975 16.9735 302.525 16.5947 302.188 16.1136C301.85 15.6326 301.67 15.0833 301.648 14.4659H303.352C303.394 14.9659 303.616 15.3769 304.017 15.6989C304.419 16.0208 304.9 16.1818 305.46 16.1818C305.907 16.1818 306.303 16.0795 306.648 15.875C306.996 15.6667 307.269 15.3807 307.466 15.017C307.667 14.6534 307.767 14.2386 307.767 13.7727C307.767 13.2992 307.665 12.8769 307.46 12.5057C307.256 12.1345 306.973 11.8428 306.614 11.6307C306.258 11.4186 305.848 11.3106 305.386 11.3068C305.034 11.3068 304.68 11.3674 304.324 11.4886C303.968 11.6098 303.68 11.7689 303.46 11.9659L301.852 11.7273L302.506 5.86364H308.903V7.36932H303.966L303.597 10.625H303.665C303.892 10.4053 304.193 10.2216 304.568 10.0739C304.947 9.92614 305.352 9.85227 305.784 9.85227C306.492 9.85227 307.123 10.0208 307.676 10.358C308.233 10.6951 308.67 11.1553 308.989 11.7386C309.311 12.3182 309.47 12.9848 309.466 13.7386C309.47 14.4924 309.299 15.1648 308.955 15.7557C308.614 16.3466 308.14 16.8125 307.534 17.1534C306.932 17.4905 306.241 17.6591 305.46 17.6591ZM316.706 10.9432V12.4205H311.547V10.9432H316.706ZM323.01 17.6591C322.491 17.6515 321.98 17.5568 321.476 17.375C320.976 17.1932 320.521 16.8902 320.112 16.4659C319.703 16.0417 319.375 15.4716 319.129 14.7557C318.887 14.0398 318.766 13.1458 318.766 12.0739C318.766 11.0587 318.866 10.1572 319.067 9.36932C319.271 8.58144 319.565 7.91667 319.947 7.375C320.33 6.82955 320.792 6.41477 321.334 6.13068C321.875 5.84659 322.483 5.70455 323.158 5.70455C323.851 5.70455 324.466 5.84091 325.004 6.11364C325.542 6.38636 325.978 6.76326 326.311 7.24432C326.648 7.72538 326.862 8.27273 326.953 8.88636H325.22C325.103 8.40152 324.87 8.00568 324.521 7.69886C324.173 7.39205 323.718 7.23864 323.158 7.23864C322.305 7.23864 321.641 7.60985 321.163 8.35227C320.69 9.0947 320.451 10.1269 320.447 11.4489H320.533C320.733 11.1193 320.98 10.839 321.271 10.608C321.567 10.3731 321.896 10.1932 322.26 10.0682C322.627 9.93939 323.014 9.875 323.419 9.875C324.093 9.875 324.703 10.0398 325.249 10.3693C325.798 10.6951 326.235 11.1458 326.561 11.7216C326.887 12.2973 327.05 12.9564 327.05 13.6989C327.05 14.4413 326.881 15.1136 326.544 15.7159C326.211 16.3182 325.741 16.7955 325.135 17.1477C324.529 17.4962 323.821 17.6667 323.01 17.6591ZM323.004 16.1818C323.451 16.1818 323.851 16.072 324.203 15.8523C324.555 15.6326 324.834 15.3371 325.038 14.9659C325.243 14.5947 325.345 14.1799 325.345 13.7216C325.345 13.2746 325.245 12.8674 325.044 12.5C324.847 12.1326 324.574 11.8409 324.226 11.625C323.881 11.4091 323.487 11.3011 323.044 11.3011C322.707 11.3011 322.394 11.3655 322.107 11.4943C321.822 11.6231 321.572 11.8011 321.357 12.0284C321.141 12.2557 320.97 12.517 320.845 12.8125C320.724 13.1042 320.663 13.4129 320.663 13.7386C320.663 14.1742 320.764 14.5777 320.964 14.9489C321.169 15.3201 321.447 15.6193 321.8 15.8466C322.156 16.0701 322.557 16.1818 323.004 16.1818ZM328.875 15.2273V13.8068L333.903 5.86364H335.023V7.95455H334.312L330.716 13.6477V13.7386H337.608V15.2273H328.875ZM334.392 17.5V14.7955L334.403 14.1477V5.86364H336.068V17.5H334.392ZM343.651 17.6591C343.132 17.6515 342.62 17.5568 342.116 17.375C341.616 17.1932 341.162 16.8902 340.753 16.4659C340.344 16.0417 340.016 15.4716 339.77 14.7557C339.527 14.0398 339.406 13.1458 339.406 12.0739C339.406 11.0587 339.507 10.1572 339.707 9.36932C339.912 8.58144 340.205 7.91667 340.588 7.375C340.971 6.82955 341.433 6.41477 341.974 6.13068C342.516 5.84659 343.124 5.70455 343.798 5.70455C344.491 5.70455 345.107 5.84091 345.645 6.11364C346.183 6.38636 346.618 6.76326 346.952 7.24432C347.289 7.72538 347.503 8.27273 347.594 8.88636H345.861C345.743 8.40152 345.51 8.00568 345.162 7.69886C344.813 7.39205 344.359 7.23864 343.798 7.23864C342.946 7.23864 342.281 7.60985 341.804 8.35227C341.33 9.0947 341.092 10.1269 341.088 11.4489H341.173C341.374 11.1193 341.62 10.839 341.912 10.608C342.207 10.3731 342.537 10.1932 342.901 10.0682C343.268 9.93939 343.654 9.875 344.06 9.875C344.734 9.875 345.344 10.0398 345.889 10.3693C346.438 10.6951 346.876 11.1458 347.202 11.7216C347.527 12.2973 347.69 12.9564 347.69 13.6989C347.69 14.4413 347.522 15.1136 347.185 15.7159C346.851 16.3182 346.382 16.7955 345.776 17.1477C345.17 17.4962 344.461 17.6667 343.651 17.6591ZM343.645 16.1818C344.092 16.1818 344.491 16.072 344.844 15.8523C345.196 15.6326 345.474 15.3371 345.679 14.9659C345.884 14.5947 345.986 14.1799 345.986 13.7216C345.986 13.2746 345.885 12.8674 345.685 12.5C345.488 12.1326 345.215 11.8409 344.866 11.625C344.522 11.4091 344.128 11.3011 343.685 11.3011C343.348 11.3011 343.035 11.3655 342.747 11.4943C342.463 11.6231 342.213 11.8011 341.997 12.0284C341.781 12.2557 341.611 12.517 341.486 12.8125C341.365 13.1042 341.304 13.4129 341.304 13.7386C341.304 14.1742 341.404 14.5777 341.605 14.9489C341.81 15.3201 342.088 15.6193 342.44 15.8466C342.796 16.0701 343.198 16.1818 343.645 16.1818ZM354.925 10.9432V12.4205H349.766V10.9432H354.925ZM361.036 5.70455C361.554 5.70833 362.066 5.80303 362.57 5.98864C363.073 6.17424 363.528 6.47727 363.933 6.89773C364.342 7.31818 364.668 7.88636 364.911 8.60227C365.157 9.31439 365.282 10.2008 365.286 11.2614C365.286 12.2803 365.183 13.1875 364.979 13.983C364.774 14.7746 364.481 15.4432 364.098 15.9886C363.719 16.5341 363.259 16.9489 362.717 17.233C362.176 17.517 361.566 17.6591 360.888 17.6591C360.195 17.6591 359.579 17.5227 359.041 17.25C358.503 16.9773 358.066 16.6004 357.729 16.1193C357.392 15.6345 357.181 15.0777 357.098 14.4489H358.831C358.945 14.9489 359.176 15.3542 359.524 15.6648C359.876 15.9716 360.331 16.125 360.888 16.125C361.74 16.125 362.405 15.7538 362.882 15.0114C363.359 14.2652 363.6 13.2235 363.604 11.8864H363.513C363.316 12.2121 363.07 12.4924 362.774 12.7273C362.482 12.9621 362.155 13.1439 361.791 13.2727C361.428 13.4015 361.039 13.4659 360.626 13.4659C359.956 13.4659 359.346 13.3011 358.797 12.9716C358.248 12.642 357.81 12.1894 357.484 11.6136C357.159 11.0379 356.996 10.3807 356.996 9.64205C356.996 8.9072 357.162 8.24053 357.496 7.64205C357.833 7.04356 358.303 6.57008 358.905 6.22159C359.511 5.86932 360.221 5.69697 361.036 5.70455ZM361.041 7.18182C360.598 7.18182 360.198 7.29167 359.842 7.51136C359.49 7.72727 359.212 8.02083 359.007 8.39205C358.803 8.75947 358.7 9.16856 358.7 9.61932C358.7 10.0701 358.799 10.4792 358.996 10.8466C359.196 11.2102 359.469 11.5 359.814 11.7159C360.162 11.928 360.56 12.0341 361.007 12.0341C361.34 12.0341 361.651 11.9697 361.939 11.8409C362.227 11.7121 362.479 11.5341 362.695 11.3068C362.911 11.0758 363.079 10.8144 363.2 10.5227C363.321 10.2311 363.382 9.92424 363.382 9.60227C363.382 9.17424 363.28 8.77652 363.075 8.40909C362.875 8.04167 362.598 7.74621 362.246 7.52273C361.893 7.29545 361.492 7.18182 361.041 7.18182ZM371.27 17.6591C370.455 17.6591 369.736 17.5189 369.111 17.2386C368.49 16.9583 368.003 16.572 367.651 16.0795C367.298 15.5871 367.124 15.0265 367.128 14.3977C367.124 13.9053 367.224 13.4527 367.429 13.0398C367.637 12.6231 367.92 12.2765 368.276 12C368.632 11.7197 369.029 11.5417 369.469 11.4659V11.3977C368.889 11.2576 368.425 10.947 368.077 10.4659C367.728 9.98485 367.556 9.43182 367.56 8.80682C367.556 8.21212 367.713 7.68182 368.031 7.21591C368.353 6.74621 368.795 6.37689 369.355 6.10795C369.916 5.83901 370.554 5.70455 371.27 5.70455C371.978 5.70455 372.611 5.84091 373.168 6.11364C373.728 6.38258 374.17 6.75189 374.491 7.22159C374.813 7.6875 374.976 8.21591 374.98 8.80682C374.976 9.43182 374.798 9.98485 374.446 10.4659C374.094 10.947 373.635 11.2576 373.071 11.3977V11.4659C373.507 11.5417 373.899 11.7197 374.247 12C374.599 12.2765 374.88 12.6231 375.088 13.0398C375.3 13.4527 375.408 13.9053 375.412 14.3977C375.408 15.0265 375.23 15.5871 374.878 16.0795C374.526 16.572 374.037 16.9583 373.412 17.2386C372.791 17.5189 372.077 17.6591 371.27 17.6591ZM371.27 16.2216C371.751 16.2216 372.168 16.142 372.52 15.983C372.872 15.8201 373.145 15.5947 373.338 15.3068C373.531 15.0152 373.63 14.6742 373.634 14.2841C373.63 13.8788 373.524 13.5208 373.315 13.2102C373.111 12.8996 372.832 12.6553 372.48 12.4773C372.128 12.2992 371.724 12.2102 371.27 12.2102C370.812 12.2102 370.404 12.2992 370.048 12.4773C369.692 12.6553 369.412 12.8996 369.207 13.2102C369.003 13.5208 368.902 13.8788 368.906 14.2841C368.902 14.6742 368.995 15.0152 369.185 15.3068C369.378 15.5947 369.652 15.8201 370.009 15.983C370.365 16.142 370.785 16.2216 371.27 16.2216ZM371.27 10.8068C371.656 10.8068 371.999 10.7292 372.298 10.5739C372.598 10.4186 372.832 10.2027 373.003 9.92614C373.177 9.64962 373.266 9.32576 373.27 8.95455C373.266 8.59091 373.179 8.27273 373.009 8C372.842 7.72727 372.609 7.51705 372.31 7.36932C372.01 7.2178 371.664 7.14205 371.27 7.14205C370.868 7.14205 370.516 7.2178 370.213 7.36932C369.914 7.51705 369.681 7.72727 369.514 8C369.348 8.27273 369.266 8.59091 369.27 8.95455C369.266 9.32576 369.349 9.64962 369.52 9.92614C369.69 10.2027 369.925 10.4186 370.224 10.5739C370.527 10.7292 370.876 10.8068 371.27 10.8068ZM377.203 15.2273V13.8068L382.232 5.86364H383.351V7.95455H382.641L379.044 13.6477V13.7386H385.936V15.2273H377.203ZM382.72 17.5V14.7955L382.732 14.1477V5.86364H384.396V17.5H382.72ZM392.175 5.86364V17.5H390.413V7.625H390.345L387.561 9.44318V7.76136L390.464 5.86364H392.175Z" fill="#D10400"/>
</svg>
