<svg width="180" height="24" viewBox="0 0 180 24" fill="none" xmlns="http://www.w3.org/2000/svg">
<path d="M12 2.00003C6.49 2.00003 2 6.49003 2 12C2 17.51 6.49 22 12 22C17.51 22 22 17.51 22 12C22 6.49003 17.51 2.00003 12 2.00003ZM16.35 15.57C16.21 15.81 15.96 15.94 15.7 15.94C15.57 15.94 15.44 15.91 15.32 15.83L12.22 13.98C11.45 13.52 10.88 12.51 10.88 11.62V7.52003C10.88 7.11003 11.22 6.77003 11.63 6.77003C12.04 6.77003 12.38 7.11003 12.38 7.52003V11.62C12.38 11.98 12.68 12.51 12.99 12.69L16.09 14.54C16.45 14.75 16.57 15.21 16.35 15.57Z" fill="#313131"/>
<path d="M34.4197 17.6392C33.7071 17.6392 33.0774 17.5166 32.5305 17.2713C31.987 17.026 31.5611 16.688 31.2528 16.2571C30.9446 15.8262 30.7921 15.3357 30.7955 14.7855C30.7921 14.3546 30.88 13.9586 31.0589 13.5973C31.2412 13.2327 31.4882 12.9295 31.7997 12.6875C32.1113 12.4422 32.4593 12.2865 32.8438 12.2202V12.1605C32.3366 12.0379 31.9306 11.7661 31.6257 11.3452C31.3208 10.9242 31.17 10.4403 31.1733 9.89347C31.17 9.37311 31.3075 8.90909 31.5859 8.50142C31.8677 8.09044 32.2538 7.76728 32.7443 7.53196C33.2348 7.29664 33.7933 7.17898 34.4197 7.17898C35.0395 7.17898 35.593 7.2983 36.0803 7.53693C36.5708 7.77225 36.9569 8.09541 37.2386 8.50639C37.5204 8.91406 37.6629 9.37642 37.6662 9.89347C37.6629 10.4403 37.5071 10.9242 37.1989 11.3452C36.8906 11.7661 36.4896 12.0379 35.9957 12.1605V12.2202C36.3769 12.2865 36.7199 12.4422 37.0249 12.6875C37.3331 12.9295 37.5784 13.2327 37.7607 13.5973C37.9463 13.9586 38.0407 14.3546 38.044 14.7855C38.0407 15.3357 37.8849 15.8262 37.5767 16.2571C37.2685 16.688 36.8409 17.026 36.294 17.2713C35.7505 17.5166 35.1257 17.6392 34.4197 17.6392ZM34.4197 16.3814C34.8407 16.3814 35.2053 16.3118 35.5135 16.1726C35.8217 16.0301 36.0604 15.8329 36.2294 15.581C36.3984 15.3258 36.4846 15.0275 36.4879 14.6861C36.4846 14.3314 36.3918 14.0182 36.2095 13.7464C36.0305 13.4747 35.7869 13.2609 35.4787 13.1051C35.1705 12.9493 34.8175 12.8714 34.4197 12.8714C34.0187 12.8714 33.6624 12.9493 33.3509 13.1051C33.0393 13.2609 32.794 13.4747 32.6151 13.7464C32.4361 14.0182 32.3482 14.3314 32.3516 14.6861C32.3482 15.0275 32.4295 15.3258 32.5952 15.581C32.7642 15.8329 33.0045 16.0301 33.3161 16.1726C33.6276 16.3118 33.9955 16.3814 34.4197 16.3814ZM34.4197 11.6435C34.7578 11.6435 35.0578 11.5755 35.3196 11.4396C35.5814 11.3037 35.7869 11.1148 35.9361 10.8729C36.0885 10.6309 36.1664 10.3475 36.1697 10.0227C36.1664 9.70455 36.0902 9.42614 35.9411 9.1875C35.7952 8.94886 35.5914 8.76491 35.3295 8.63565C35.0677 8.50308 34.7644 8.43679 34.4197 8.43679C34.0684 8.43679 33.7602 8.50308 33.495 8.63565C33.2332 8.76491 33.0294 8.94886 32.8835 9.1875C32.7377 9.42614 32.6664 9.70455 32.6697 10.0227C32.6664 10.3475 32.7393 10.6309 32.8885 10.8729C33.0376 11.1148 33.2431 11.3037 33.505 11.4396C33.7701 11.5755 34.075 11.6435 34.4197 11.6435ZM40.8244 16.2372C40.5526 16.2372 40.319 16.1411 40.1234 15.9489C39.9279 15.7533 39.8301 15.518 39.8301 15.2429C39.8301 14.9711 39.9279 14.7391 40.1234 14.5469C40.319 14.3513 40.5526 14.2536 40.8244 14.2536C41.0962 14.2536 41.3298 14.3513 41.5254 14.5469C41.7209 14.7391 41.8187 14.9711 41.8187 15.2429C41.8187 15.4252 41.7723 15.5926 41.6795 15.745C41.59 15.8942 41.4707 16.0135 41.3216 16.103C41.1724 16.1925 41.0067 16.2372 40.8244 16.2372ZM40.8244 11.1364C40.5526 11.1364 40.319 11.0402 40.1234 10.848C39.9279 10.6525 39.8301 10.4171 39.8301 10.142C39.8301 9.87027 39.9279 9.63826 40.1234 9.44602C40.319 9.25047 40.5526 9.1527 40.8244 9.1527C41.0962 9.1527 41.3298 9.25047 41.5254 9.44602C41.7209 9.63826 41.8187 9.87027 41.8187 10.142C41.8187 10.3243 41.7723 10.4917 41.6795 10.6442C41.59 10.7933 41.4707 10.9126 41.3216 11.0021C41.1724 11.0916 41.0067 11.1364 40.8244 11.1364ZM47.3347 17.669C46.5492 17.6657 45.878 17.4586 45.3212 17.0476C44.7644 16.6366 44.3385 16.0384 44.0435 15.2528C43.7485 14.4673 43.601 13.5211 43.601 12.4141C43.601 11.3104 43.7485 10.3674 44.0435 9.58523C44.3418 8.80303 44.7694 8.20644 45.3262 7.79545C45.8863 7.38447 46.5558 7.17898 47.3347 7.17898C48.1136 7.17898 48.7814 7.38613 49.3382 7.80043C49.8951 8.21141 50.321 8.808 50.6159 9.5902C50.9142 10.3691 51.0634 11.3104 51.0634 12.4141C51.0634 13.5244 50.9159 14.4723 50.6209 15.2578C50.3259 16.04 49.9 16.6383 49.3432 17.0526C48.7864 17.4635 48.1169 17.669 47.3347 17.669ZM47.3347 16.3416C48.0241 16.3416 48.5627 16.0052 48.9505 15.3324C49.3416 14.6596 49.5371 13.6868 49.5371 12.4141C49.5371 11.5689 49.4476 10.8546 49.2686 10.2713C49.093 9.68466 48.8394 9.24053 48.508 8.93892C48.1799 8.634 47.7888 8.48153 47.3347 8.48153C46.6486 8.48153 46.11 8.8196 45.7189 9.49574C45.3278 10.1719 45.1306 11.1446 45.1273 12.4141C45.1273 13.2625 45.2151 13.9801 45.3908 14.5668C45.5698 15.1501 45.8233 15.5926 46.1515 15.8942C46.4796 16.1925 46.874 16.3416 47.3347 16.3416ZM56.3718 17.669C55.5863 17.6657 54.9151 17.4586 54.3583 17.0476C53.8015 16.6366 53.3756 16.0384 53.0806 15.2528C52.7856 14.4673 52.6381 13.5211 52.6381 12.4141C52.6381 11.3104 52.7856 10.3674 53.0806 9.58523C53.3789 8.80303 53.8065 8.20644 54.3633 7.79545C54.9234 7.38447 55.5929 7.17898 56.3718 7.17898C57.1507 7.17898 57.8185 7.38613 58.3754 7.80043C58.9322 8.21141 59.3581 8.808 59.6531 9.5902C59.9513 10.3691 60.1005 11.3104 60.1005 12.4141C60.1005 13.5244 59.953 14.4723 59.658 15.2578C59.363 16.04 58.9371 16.6383 58.3803 17.0526C57.8235 17.4635 57.154 17.669 56.3718 17.669ZM56.3718 16.3416C57.0612 16.3416 57.5998 16.0052 57.9876 15.3324C58.3787 14.6596 58.5742 13.6868 58.5742 12.4141C58.5742 11.5689 58.4847 10.8546 58.3058 10.2713C58.1301 9.68466 57.8765 9.24053 57.5451 8.93892C57.217 8.634 56.8259 8.48153 56.3718 8.48153C55.6857 8.48153 55.1471 8.8196 54.756 9.49574C54.3649 10.1719 54.1677 11.1446 54.1644 12.4141C54.1644 13.2625 54.2522 13.9801 54.4279 14.5668C54.6069 15.1501 54.8604 15.5926 55.1886 15.8942C55.5167 16.1925 55.9111 16.3416 56.3718 16.3416ZM66.5685 17.5H64.9379L68.6019 7.31818H70.3768L74.0408 17.5H72.4102L69.5316 9.16761H69.4521L66.5685 17.5ZM66.842 13.5128H72.1317V14.8054H66.842V13.5128ZM75.5112 7.31818H77.3755L80.617 15.233H80.7363L83.9778 7.31818H85.8422V17.5H84.3805V10.1321H84.286L81.2832 17.4851H80.0701L77.0673 10.1271H76.9728V17.5H75.5112V7.31818ZM96.4988 14.3331V9.86364H97.9902V17.5H96.5286V16.1776H96.449C96.2734 16.5852 95.9917 16.925 95.6039 17.1967C95.2194 17.4652 94.7405 17.5994 94.1671 17.5994C93.6766 17.5994 93.2424 17.4917 92.8645 17.2763C92.49 17.0575 92.195 16.7344 91.9796 16.3068C91.7675 15.8793 91.6614 15.3506 91.6614 14.7209V9.86364H93.1479V14.5419C93.1479 15.0623 93.2921 15.4766 93.5804 15.7848C93.8688 16.093 94.2433 16.2472 94.704 16.2472C94.9824 16.2472 95.2592 16.1776 95.5343 16.0384C95.8127 15.8991 96.043 15.6887 96.2253 15.407C96.4109 15.1252 96.5021 14.7673 96.4988 14.3331ZM101.474 12.9659V17.5H99.9876V9.86364H101.414V11.1065H101.509C101.685 10.7022 101.96 10.3774 102.334 10.1321C102.712 9.88684 103.188 9.7642 103.761 9.7642C104.281 9.7642 104.737 9.87358 105.128 10.0923C105.519 10.3078 105.823 10.6293 106.038 11.0568C106.253 11.4844 106.361 12.013 106.361 12.6428V17.5H104.875V12.8217C104.875 12.2682 104.73 11.8357 104.442 11.5241C104.154 11.2093 103.758 11.0518 103.254 11.0518C102.909 11.0518 102.603 11.1264 102.334 11.2756C102.069 11.4247 101.859 11.6435 101.703 11.9318C101.55 12.2169 101.474 12.5616 101.474 12.9659ZM111.919 9.86364V11.0568H107.748V9.86364H111.919ZM108.867 8.03409H110.353V15.2578C110.353 15.5462 110.396 15.7633 110.483 15.9091C110.569 16.0516 110.68 16.1494 110.816 16.2024C110.955 16.2521 111.106 16.277 111.268 16.277C111.387 16.277 111.492 16.2687 111.581 16.2521C111.671 16.2356 111.74 16.2223 111.79 16.2124L112.059 17.4403C111.972 17.4735 111.85 17.5066 111.691 17.5398C111.532 17.5762 111.333 17.5961 111.094 17.5994C110.703 17.6061 110.338 17.5365 110 17.3906C109.662 17.2448 109.389 17.0194 109.18 16.7145C108.971 16.4096 108.867 16.0268 108.867 15.5661V8.03409ZM113.564 17.5V9.86364H115.05V17.5H113.564ZM114.314 8.68537C114.056 8.68537 113.834 8.59919 113.648 8.42685C113.466 8.25118 113.375 8.04238 113.375 7.80043C113.375 7.55516 113.466 7.34635 113.648 7.17401C113.834 6.99834 114.056 6.91051 114.314 6.91051C114.573 6.91051 114.793 6.99834 114.976 7.17401C115.161 7.34635 115.254 7.55516 115.254 7.80043C115.254 8.04238 115.161 8.25118 114.976 8.42685C114.793 8.59919 114.573 8.68537 114.314 8.68537ZM118.537 7.31818V17.5H117.05V7.31818H118.537ZM127.776 17.6392C127.322 17.6326 126.875 17.5497 126.434 17.3906C125.996 17.2315 125.599 16.9664 125.241 16.5952C124.883 16.224 124.596 15.7251 124.381 15.0987C124.169 14.4723 124.062 13.6901 124.062 12.7521C124.062 11.8639 124.15 11.075 124.326 10.3857C124.505 9.69626 124.762 9.11458 125.097 8.64062C125.431 8.16335 125.836 7.80043 126.31 7.55185C126.784 7.30327 127.316 7.17898 127.906 7.17898C128.512 7.17898 129.051 7.2983 129.521 7.53693C129.992 7.77557 130.373 8.10535 130.665 8.52628C130.96 8.94721 131.147 9.42614 131.227 9.96307H129.71C129.607 9.53883 129.404 9.19247 129.099 8.92401C128.794 8.65554 128.396 8.52131 127.906 8.52131C127.16 8.52131 126.578 8.84612 126.161 9.49574C125.746 10.1454 125.537 11.0485 125.534 12.2053H125.609C125.784 11.9169 126 11.6716 126.255 11.4695C126.513 11.264 126.802 11.1065 127.12 10.9972C127.442 10.8845 127.78 10.8281 128.134 10.8281C128.724 10.8281 129.258 10.9723 129.735 11.2607C130.216 11.5457 130.598 11.9401 130.884 12.4439C131.169 12.9477 131.311 13.5244 131.311 14.174C131.311 14.8236 131.164 15.4119 130.869 15.9389C130.577 16.4659 130.166 16.8835 129.636 17.1918C129.105 17.4967 128.486 17.6458 127.776 17.6392ZM127.771 16.3466C128.162 16.3466 128.512 16.2505 128.82 16.0582C129.129 15.866 129.372 15.6075 129.551 15.2827C129.73 14.9579 129.82 14.5949 129.82 14.1939C129.82 13.8028 129.732 13.4465 129.556 13.125C129.384 12.8035 129.145 12.5483 128.84 12.3594C128.539 12.1705 128.194 12.076 127.806 12.076C127.511 12.076 127.238 12.1323 126.986 12.245C126.737 12.3577 126.518 12.5135 126.33 12.7124C126.141 12.9112 125.991 13.1399 125.882 13.3984C125.776 13.6536 125.723 13.9238 125.723 14.2088C125.723 14.59 125.811 14.9429 125.987 15.2678C126.165 15.5926 126.409 15.8544 126.717 16.0533C127.029 16.2488 127.38 16.3466 127.771 16.3466ZM134.121 16.2372C133.849 16.2372 133.616 16.1411 133.42 15.9489C133.225 15.7533 133.127 15.518 133.127 15.2429C133.127 14.9711 133.225 14.7391 133.42 14.5469C133.616 14.3513 133.849 14.2536 134.121 14.2536C134.393 14.2536 134.627 14.3513 134.822 14.5469C135.018 14.7391 135.116 14.9711 135.116 15.2429C135.116 15.4252 135.069 15.5926 134.976 15.745C134.887 15.8942 134.768 16.0135 134.618 16.103C134.469 16.1925 134.304 16.2372 134.121 16.2372ZM134.121 11.1364C133.849 11.1364 133.616 11.0402 133.42 10.848C133.225 10.6525 133.127 10.4171 133.127 10.142C133.127 9.87027 133.225 9.63826 133.42 9.44602C133.616 9.25047 133.849 9.1527 134.121 9.1527C134.393 9.1527 134.627 9.25047 134.822 9.44602C135.018 9.63826 135.116 9.87027 135.116 10.142C135.116 10.3243 135.069 10.4917 134.976 10.6442C134.887 10.7933 134.768 10.9126 134.618 11.0021C134.469 11.0916 134.304 11.1364 134.121 11.1364ZM140.632 17.669C139.846 17.6657 139.175 17.4586 138.618 17.0476C138.061 16.6366 137.635 16.0384 137.34 15.2528C137.045 14.4673 136.898 13.5211 136.898 12.4141C136.898 11.3104 137.045 10.3674 137.34 9.58523C137.639 8.80303 138.066 8.20644 138.623 7.79545C139.183 7.38447 139.853 7.17898 140.632 7.17898C141.41 7.17898 142.078 7.38613 142.635 7.80043C143.192 8.21141 143.618 8.808 143.913 9.5902C144.211 10.3691 144.36 11.3104 144.36 12.4141C144.36 13.5244 144.213 14.4723 143.918 15.2578C143.623 16.04 143.197 16.6383 142.64 17.0526C142.083 17.4635 141.414 17.669 140.632 17.669ZM140.632 16.3416C141.321 16.3416 141.86 16.0052 142.247 15.3324C142.638 14.6596 142.834 13.6868 142.834 12.4141C142.834 11.5689 142.744 10.8546 142.566 10.2713C142.39 9.68466 142.136 9.24053 141.805 8.93892C141.477 8.634 141.086 8.48153 140.632 8.48153C139.945 8.48153 139.407 8.8196 139.016 9.49574C138.625 10.1719 138.427 11.1446 138.424 12.4141C138.424 13.2625 138.512 13.9801 138.688 14.5668C138.867 15.1501 139.12 15.5926 139.448 15.8942C139.776 16.1925 140.171 16.3416 140.632 16.3416ZM149.669 17.669C148.883 17.6657 148.212 17.4586 147.655 17.0476C147.098 16.6366 146.672 16.0384 146.377 15.2528C146.083 14.4673 145.935 13.5211 145.935 12.4141C145.935 11.3104 146.083 10.3674 146.377 9.58523C146.676 8.80303 147.103 8.20644 147.66 7.79545C148.22 7.38447 148.89 7.17898 149.669 7.17898C150.448 7.17898 151.115 7.38613 151.672 7.80043C152.229 8.21141 152.655 8.808 152.95 9.5902C153.248 10.3691 153.397 11.3104 153.397 12.4141C153.397 13.5244 153.25 14.4723 152.955 15.2578C152.66 16.04 152.234 16.6383 151.677 17.0526C151.12 17.4635 150.451 17.669 149.669 17.669ZM149.669 16.3416C150.358 16.3416 150.897 16.0052 151.284 15.3324C151.676 14.6596 151.871 13.6868 151.871 12.4141C151.871 11.5689 151.782 10.8546 151.603 10.2713C151.427 9.68466 151.173 9.24053 150.842 8.93892C150.514 8.634 150.123 8.48153 149.669 8.48153C148.983 8.48153 148.444 8.8196 148.053 9.49574C147.662 10.1719 147.465 11.1446 147.461 12.4141C147.461 13.2625 147.549 13.9801 147.725 14.5668C147.904 15.1501 148.157 15.5926 148.485 15.8942C148.814 16.1925 149.208 16.3416 149.669 16.3416ZM159.005 17.5V7.31818H162.635C163.427 7.31818 164.083 7.46236 164.603 7.75071C165.124 8.03906 165.513 8.43347 165.772 8.93395C166.03 9.43111 166.159 9.99124 166.159 10.6143C166.159 11.2408 166.029 11.8042 165.767 12.3047C165.508 12.8018 165.117 13.1963 164.593 13.4879C164.073 13.7763 163.418 13.9205 162.63 13.9205H160.134V12.6179H162.49C162.991 12.6179 163.397 12.5317 163.708 12.3594C164.02 12.1837 164.249 11.9451 164.395 11.6435C164.54 11.3419 164.613 10.9988 164.613 10.6143C164.613 10.2299 164.54 9.88849 164.395 9.5902C164.249 9.2919 164.018 9.05824 163.703 8.8892C163.392 8.72017 162.981 8.63565 162.471 8.63565H160.542V17.5H159.005ZM167.96 7.31818H169.825L173.066 15.233H173.186L176.427 7.31818H178.291V17.5H176.83V10.1321H176.735L173.732 17.4851H172.519L169.517 10.1271H169.422V17.5H167.96V7.31818Z" fill="#313131"/>
</svg>
